<svg width="800" height="800" viewBox="0 0 800 800" fill="none" xmlns="http://www.w3.org/2000/svg">
<path d="M400 100L746.41 700H53.5898L400 100Z" fill="#3A454A"/>
<path d="M400 100L443.301 75H356.699L400 100ZM53.5898 700L10.2886 675L53.5898 750V700ZM573.205 400V450H659.808L616.506 375L573.205 400ZM356.699 125L529.904 425L616.506 375L443.301 75L356.699 125ZM400 650H53.5898V750H400V650ZM573.205 350H226.795V450H573.205V350ZM201.795 443.301L721.4 743.301L771.4 656.699L251.795 356.699L201.795 443.301ZM96.8911 725L270.096 425L183.494 375L10.2886 675L96.8911 725ZM270.096 425L443.301 125L356.699 75L183.494 375L270.096 425Z" fill="#7FBBB3"/>
</svg>
